<svg width="48" height="48" viewBox="0 0 48 48" fill="none" xmlns="http://www.w3.org/2000/svg">
<path d="M13.551 18.6531C12.2669 18.6959 11.051 19.2416 10.1654 20.1726C9.27987 21.1036 8.79561 22.3453 8.81703 23.63C8.83844 24.9147 9.36382 26.1395 10.2799 27.0404C11.196 27.9414 12.4294 28.4463 13.7143 28.4463C14.9992 28.4463 16.2326 27.9414 17.1487 27.0404C18.0648 26.1395 18.5902 24.9147 18.6116 23.63C18.633 22.3453 18.1487 21.1036 17.2632 20.1726C16.3776 19.2416 15.1617 18.6959 13.8776 18.6531H13.551ZM20.4082 18.6531C19.124 18.6959 17.9081 19.2416 17.0226 20.1726C16.137 21.1036 15.6528 22.3453 15.6742 23.63C15.6956 24.9147 16.221 26.1395 17.1371 27.0404C18.0531 27.9414 19.2866 28.4463 20.5714 28.4463C21.8563 28.4463 23.0898 27.9414 24.0058 27.0404C24.9219 26.1395 25.4473 24.9147 25.4687 23.63C25.4901 22.3453 25.0059 21.1036 24.1203 20.1726C23.2348 19.2416 22.0189 18.6959 20.7347 18.6531H20.4082ZM27.2653 18.6531C25.9812 18.6959 24.7653 19.2416 23.8797 20.1726C22.9942 21.1036 22.5099 22.3453 22.5313 23.63C22.5527 24.9147 23.0781 26.1395 23.9942 27.0404C24.9103 27.9414 26.1437 28.4463 27.4286 28.4463C28.7135 28.4463 29.9469 27.9414 30.863 27.0404C31.7791 26.1395 32.3045 24.9147 32.3259 23.63C32.3473 22.3453 31.863 21.1036 30.9775 20.1726C30.0919 19.2416 28.876 18.6959 27.5919 18.6531H27.2653ZM34.1225 18.6531C32.8383 18.6959 31.6224 19.2416 30.7368 20.1726C29.8513 21.1036 29.367 22.3453 29.3885 23.63C29.4099 24.9147 29.9353 26.1395 30.8513 27.0404C31.7674 27.9414 33.0009 28.4463 34.2857 28.4463C35.5706 28.4463 36.804 27.9414 37.7201 27.0404C38.6362 26.1395 39.1616 24.9147 39.183 23.63C39.2044 22.3453 38.7202 21.1036 37.8346 20.1726C36.9491 19.2416 35.7332 18.6959 34.449 18.6531H34.1225Z" stroke="black"/>
</svg>
